<svg xmlns="http://www.w3.org/2000/svg" viewBox="0 0 1200 900" width="1200" height="900" role="img" aria-label="Dispatch photo placeholder: dispatcher with three monitors full of map pins and schedule grid">
  <defs>
    <linearGradient id="bg" x1="0" y1="0" x2="1" y2="1">
      <stop offset="0%" stop-color="#070d18"/>
      <stop offset="100%" stop-color="#0e1a2b"/>
    </linearGradient>
  </defs>
  <rect width="1200" height="900" fill="url(#bg)"/>
  <rect width="1200" height="900" fill="#f26a1f" opacity="0.04"/>

  <g transform="translate(80 170)">
    <rect width="320" height="220" rx="8" fill="#0b1422" stroke="#1f3558" stroke-width="2"/>
    <rect x="10" y="10" width="300" height="200" rx="4" fill="#0e1a2b"/>
    <g opacity="0.5">
      <path d="M30 60 Q 150 30 280 80 T 310 200" stroke="#2d4874" stroke-width="1" fill="none"/>
      <path d="M20 120 Q 120 90 220 130 T 300 150" stroke="#2d4874" stroke-width="1" fill="none"/>
    </g>
    <circle cx="80" cy="70" r="6" fill="#f26a1f"/>
    <circle cx="150" cy="110" r="6" fill="#f26a1f"/>
    <circle cx="230" cy="90" r="6" fill="#f26a1f"/>
    <circle cx="200" cy="160" r="6" fill="#34d399"/>
    <rect x="0" y="224" width="320" height="20" rx="2" fill="#1f3558"/>
  </g>

  <g transform="translate(440 130)">
    <rect width="320" height="260" rx="8" fill="#0b1422" stroke="#1f3558" stroke-width="2"/>
    <rect x="10" y="10" width="300" height="240" rx="4" fill="#0e1a2b"/>
    <g>
      <rect x="20" y="30" width="280" height="24" rx="4" fill="#1f3558"/>
      <rect x="20" y="60" width="40" height="180" rx="2" fill="#0b1422"/>
      <g fill="#f26a1f" opacity="0.8">
        <rect x="70" y="70" width="200" height="22" rx="3"/>
        <rect x="90" y="100" width="180" height="22" rx="3"/>
        <rect x="70" y="130" width="140" height="22" rx="3"/>
        <rect x="110" y="160" width="160" height="22" rx="3"/>
        <rect x="80" y="190" width="190" height="22" rx="3"/>
      </g>
    </g>
    <rect x="0" y="264" width="320" height="20" rx="2" fill="#1f3558"/>
  </g>

  <g transform="translate(800 170)">
    <rect width="320" height="220" rx="8" fill="#0b1422" stroke="#1f3558" stroke-width="2"/>
    <rect x="10" y="10" width="300" height="200" rx="4" fill="#0e1a2b"/>
    <rect x="20" y="20" width="280" height="28" rx="4" fill="#1f3558"/>
    <g fill="#16263e">
      <rect x="20" y="58" width="280" height="28" rx="4"/>
      <rect x="20" y="94" width="280" height="28" rx="4"/>
      <rect x="20" y="130" width="280" height="28" rx="4"/>
      <rect x="20" y="166" width="280" height="28" rx="4"/>
    </g>
    <g fill="#34d399">
      <circle cx="40" cy="72" r="4"/>
      <circle cx="40" cy="108" r="4"/>
      <circle cx="40" cy="144" r="4"/>
      <circle cx="40" cy="180" r="4"/>
    </g>
    <rect x="0" y="224" width="320" height="20" rx="2" fill="#1f3558"/>
  </g>

  <g transform="translate(600 480)">
    <ellipse cx="0" cy="260" rx="260" ry="14" fill="#000000" opacity="0.5"/>
    <rect x="-90" y="100" width="180" height="150" rx="10" fill="#1f3558"/>
    <rect x="-6" y="-20" width="12" height="80" rx="4" fill="#0b1422"/>
    <circle cx="0" cy="-40" r="36" fill="#f5d6b3"/>
    <rect x="-40" y="-90" width="80" height="40" rx="20" fill="#0b1422"/>
  </g>

  <rect x="60" y="60" width="4" height="32" fill="#f26a1f"/>
  <text x="80" y="86" font-family="Inter, sans-serif" font-size="18" font-weight="700" fill="#ffffff" letter-spacing="4">DISPATCH PHOTO PLACEHOLDER</text>
  <text x="60" y="820" font-family="Inter, sans-serif" font-size="22" font-weight="800" fill="#ffffff" opacity="0.9">Dispatcher · three monitors · map + schedule</text>
</svg>
